<svg width="1024" height="753" viewBox="0 0 1024 753" fill="none" xmlns="http://www.w3.org/2000/svg">
<g opacity="0.2" filter="url(#filter0_f_175_1868)">
<ellipse cx="529.5" cy="37" rx="670.5" ry="350" fill="#35875D"/>
</g>
<path d="M50.0349 273C51.5302 273 52.6622 273.63 53.4308 274.891C54.2134 276.138 54.6047 277.953 54.6047 280.336C54.6047 282.719 54.2134 284.541 53.4308 285.802C52.6622 287.063 51.5302 287.693 50.0349 287.693C48.5536 287.693 47.4216 287.063 46.639 285.802C45.8564 284.541 45.4651 282.719 45.4651 280.336C45.4651 277.967 45.8564 276.152 46.639 274.891C47.4216 273.63 48.5536 273 50.0349 273ZM46.9534 280.336C46.9534 282.026 47.1072 283.35 47.4146 284.306L52.0683 275.099C51.5791 274.448 50.9013 274.122 50.0349 274.122C49.0706 274.122 48.316 274.635 47.771 275.66C47.2259 276.672 46.9534 278.23 46.9534 280.336ZM50.0349 286.55C51.0131 286.55 51.7748 286.044 52.3198 285.033C52.8648 284.008 53.1373 282.442 53.1373 280.336C53.1373 278.549 52.9627 277.163 52.6133 276.18L47.9596 285.469C48.4627 286.19 49.1545 286.55 50.0349 286.55Z" fill="url(#paint0_linear_175_1868)" fill-opacity="0.6"/>
<path d="M51.2926 310.135H54.3741V311.236H46.3874V310.135H49.9511V298.455L46.5551 300.471L45.9682 299.536L50.1607 296.959H51.2926V310.135Z" fill="url(#paint1_linear_175_1868)" fill-opacity="0.6"/>
<path d="M50.0349 320.502C51.5302 320.502 52.6622 321.133 53.4308 322.393C54.2134 323.64 54.6047 325.455 54.6047 327.838C54.6047 330.221 54.2134 332.043 53.4308 333.304C52.6622 334.565 51.5302 335.195 50.0349 335.195C48.5536 335.195 47.4216 334.565 46.639 333.304C45.8564 332.043 45.4651 330.221 45.4651 327.838C45.4651 325.469 45.8564 323.654 46.639 322.393C47.4216 321.133 48.5536 320.502 50.0349 320.502ZM46.9534 327.838C46.9534 329.529 47.1072 330.852 47.4146 331.808L52.0683 322.601C51.5791 321.95 50.9013 321.624 50.0349 321.624C49.0706 321.624 48.316 322.137 47.771 323.162C47.2259 324.174 46.9534 325.732 46.9534 327.838ZM50.0349 334.052C51.0131 334.052 51.7748 333.546 52.3198 332.535C52.8648 331.51 53.1373 329.944 53.1373 327.838C53.1373 326.051 52.9627 324.665 52.6133 323.682L47.9596 332.971C48.4627 333.692 49.1545 334.052 50.0349 334.052Z" fill="url(#paint2_linear_175_1868)" fill-opacity="0.6"/>
<path d="M51.2926 357.637H54.3741V358.738H46.3874V357.637H49.9511V345.957L46.5551 347.973L45.9682 347.038L50.1607 344.461H51.2926V357.637Z" fill="url(#paint3_linear_175_1868)" fill-opacity="0.6"/>
<path d="M51.2926 381.388H54.3741V382.489H46.3874V381.388H49.9511V369.708L46.5551 371.724L45.9682 370.789L50.1607 368.212H51.2926V381.388Z" fill="url(#paint4_linear_175_1868)" fill-opacity="0.6"/>
<path d="M50.0349 391.755C51.5302 391.755 52.6622 392.386 53.4308 393.646C54.2134 394.893 54.6047 396.708 54.6047 399.091C54.6047 401.474 54.2134 403.296 53.4308 404.557C52.6622 405.818 51.5302 406.448 50.0349 406.448C48.5536 406.448 47.4216 405.818 46.639 404.557C45.8564 403.296 45.4651 401.474 45.4651 399.091C45.4651 396.722 45.8564 394.907 46.639 393.646C47.4216 392.386 48.5536 391.755 50.0349 391.755ZM46.9534 399.091C46.9534 400.782 47.1072 402.105 47.4146 403.061L52.0683 393.854C51.5791 393.203 50.9013 392.878 50.0349 392.878C49.0706 392.878 48.316 393.39 47.771 394.415C47.2259 395.427 46.9534 396.985 46.9534 399.091ZM50.0349 405.305C51.0131 405.305 51.7748 404.8 52.3198 403.788C52.8648 402.763 53.1373 401.197 53.1373 399.091C53.1373 397.304 52.9627 395.919 52.6133 394.935L47.9596 404.225C48.4627 404.945 49.1545 405.305 50.0349 405.305Z" fill="url(#paint5_linear_175_1868)" fill-opacity="0.6"/>
<path d="M51.2926 428.89H54.3741V429.992H46.3874V428.89H49.9511V417.21L46.5551 419.226L45.9682 418.291L50.1607 415.714H51.2926V428.89Z" fill="url(#paint6_linear_175_1868)" fill-opacity="0.6"/>
<path d="M50.0349 439.257C51.5302 439.257 52.6622 439.888 53.4308 441.149C54.2134 442.396 54.6047 444.211 54.6047 446.594C54.6047 448.977 54.2134 450.798 53.4308 452.059C52.6622 453.32 51.5302 453.95 50.0349 453.95C48.5536 453.95 47.4216 453.32 46.639 452.059C45.8564 450.798 45.4651 448.977 45.4651 446.594C45.4651 444.224 45.8564 442.409 46.639 441.149C47.4216 439.888 48.5536 439.257 50.0349 439.257ZM46.9534 446.594C46.9534 448.284 47.1072 449.607 47.4146 450.563L52.0683 441.356C51.5791 440.705 50.9013 440.38 50.0349 440.38C49.0706 440.38 48.316 440.892 47.771 441.918C47.2259 442.929 46.9534 444.488 46.9534 446.594ZM50.0349 452.807C51.0131 452.807 51.7748 452.302 52.3198 451.29C52.8648 450.265 53.1373 448.699 53.1373 446.594C53.1373 444.806 52.9627 443.421 52.6133 442.437L47.9596 451.727C48.4627 452.447 49.1545 452.807 50.0349 452.807Z" fill="url(#paint7_linear_175_1868)" fill-opacity="0.6"/>
<path d="M50.0349 463.008C51.5302 463.008 52.6622 463.639 53.4308 464.9C54.2134 466.147 54.6047 467.962 54.6047 470.345C54.6047 472.728 54.2134 474.549 53.4308 475.81C52.6622 477.071 51.5302 477.701 50.0349 477.701C48.5536 477.701 47.4216 477.071 46.639 475.81C45.8564 474.549 45.4651 472.728 45.4651 470.345C45.4651 467.975 45.8564 466.16 46.639 464.9C47.4216 463.639 48.5536 463.008 50.0349 463.008ZM46.9534 470.345C46.9534 472.035 47.1072 473.358 47.4146 474.314L52.0683 465.107C51.5791 464.456 50.9013 464.131 50.0349 464.131C49.0706 464.131 48.316 464.643 47.771 465.669C47.2259 466.68 46.9534 468.239 46.9534 470.345ZM50.0349 476.558C51.0131 476.558 51.7748 476.053 52.3198 475.041C52.8648 474.016 53.1373 472.451 53.1373 470.345C53.1373 468.557 52.9627 467.172 52.6133 466.188L47.9596 475.478C48.4627 476.198 49.1545 476.558 50.0349 476.558Z" fill="url(#paint8_linear_175_1868)" fill-opacity="0.6"/>
<path d="M51.2926 500.143H54.3741V501.245H46.3874V500.143H49.9511V488.464L46.5551 490.48L45.9682 489.544L50.1607 486.967H51.2926V500.143Z" fill="url(#paint9_linear_175_1868)" fill-opacity="0.6"/>
<path d="M50.0349 510.511C51.5302 510.511 52.6622 511.141 53.4308 512.402C54.2134 513.649 54.6047 515.464 54.6047 517.847C54.6047 520.23 54.2134 522.052 53.4308 523.312C52.6622 524.573 51.5302 525.204 50.0349 525.204C48.5536 525.204 47.4216 524.573 46.639 523.312C45.8564 522.052 45.4651 520.23 45.4651 517.847C45.4651 515.478 45.8564 513.663 46.639 512.402C47.4216 511.141 48.5536 510.511 50.0349 510.511ZM46.9534 517.847C46.9534 519.537 47.1072 520.86 47.4146 521.816L52.0683 512.61C51.5791 511.958 50.9013 511.633 50.0349 511.633C49.0706 511.633 48.316 512.145 47.771 513.171C47.2259 514.182 46.9534 515.741 46.9534 517.847ZM50.0349 524.061C51.0131 524.061 51.7748 523.555 52.3198 522.543C52.8648 521.518 53.1373 519.953 53.1373 517.847C53.1373 516.059 52.9627 514.674 52.6133 513.69L47.9596 522.98C48.4627 523.7 49.1545 524.061 50.0349 524.061Z" fill="url(#paint10_linear_175_1868)" fill-opacity="0.6"/>
<path d="M51.2926 547.645H54.3741V548.747H46.3874V547.645H49.9511V535.966L46.5551 537.982L45.9682 537.046L50.1607 534.469H51.2926V547.645Z" fill="url(#paint11_linear_175_1868)" fill-opacity="0.6"/>
<path d="M51.2926 571.396H54.3741V572.498H46.3874V571.396H49.9511V559.717L46.5551 561.733L45.9682 560.798L50.1607 558.221H51.2926V571.396Z" fill="url(#paint12_linear_175_1868)" fill-opacity="0.6"/>
<path d="M88.9651 320.502C90.4604 320.502 91.5924 321.133 92.361 322.393C93.1436 323.64 93.5349 325.455 93.5349 327.838C93.5349 330.221 93.1436 332.043 92.361 333.304C91.5924 334.565 90.4604 335.195 88.9651 335.195C87.4838 335.195 86.3518 334.565 85.5692 333.304C84.7866 332.043 84.3953 330.221 84.3953 327.838C84.3953 325.469 84.7866 323.654 85.5692 322.393C86.3518 321.133 87.4838 320.502 88.9651 320.502ZM85.8836 327.838C85.8836 329.529 86.0374 330.852 86.3448 331.808L90.9985 322.601C90.5093 321.95 89.8315 321.624 88.9651 321.624C88.0008 321.624 87.2462 322.137 86.7012 323.162C86.1561 324.174 85.8836 325.732 85.8836 327.838ZM88.9651 334.052C89.9433 334.052 90.705 333.546 91.25 332.535C91.795 331.51 92.0675 329.944 92.0675 327.838C92.0675 326.051 91.8928 324.665 91.5435 323.682L86.8898 332.971C87.3929 333.692 88.0847 334.052 88.9651 334.052Z" fill="url(#paint13_linear_175_1868)" fill-opacity="0.6"/>
<path d="M90.2228 357.637H93.3043V358.738H85.3176V357.637H88.8812V345.957L85.4853 347.973L84.8984 347.038L89.0909 344.461H90.2228V357.637Z" fill="url(#paint14_linear_175_1868)" fill-opacity="0.6"/>
<path d="M88.9651 368.004C90.4604 368.004 91.5924 368.635 92.361 369.895C93.1436 371.142 93.5349 372.957 93.5349 375.34C93.5349 377.723 93.1436 379.545 92.361 380.806C91.5924 382.067 90.4604 382.697 88.9651 382.697C87.4838 382.697 86.3518 382.067 85.5692 380.806C84.7866 379.545 84.3953 377.723 84.3953 375.34C84.3953 372.971 84.7866 371.156 85.5692 369.895C86.3518 368.635 87.4838 368.004 88.9651 368.004ZM85.8836 375.34C85.8836 377.031 86.0374 378.354 86.3448 379.31L90.9985 370.103C90.5093 369.452 89.8315 369.126 88.9651 369.126C88.0008 369.126 87.2462 369.639 86.7012 370.664C86.1561 371.676 85.8836 373.234 85.8836 375.34ZM88.9651 381.554C89.9433 381.554 90.705 381.049 91.25 380.037C91.795 379.012 92.0675 377.446 92.0675 375.34C92.0675 373.553 91.8928 372.168 91.5435 371.184L86.8898 380.474C87.3929 381.194 88.0847 381.554 88.9651 381.554Z" fill="url(#paint15_linear_175_1868)" fill-opacity="0.6"/>
<path d="M88.9651 391.755C90.4604 391.755 91.5924 392.386 92.361 393.646C93.1436 394.893 93.5349 396.708 93.5349 399.091C93.5349 401.474 93.1436 403.296 92.361 404.557C91.5924 405.818 90.4604 406.448 88.9651 406.448C87.4838 406.448 86.3518 405.818 85.5692 404.557C84.7866 403.296 84.3953 401.474 84.3953 399.091C84.3953 396.722 84.7866 394.907 85.5692 393.646C86.3518 392.386 87.4838 391.755 88.9651 391.755ZM85.8836 399.091C85.8836 400.782 86.0374 402.105 86.3448 403.061L90.9985 393.854C90.5093 393.203 89.8315 392.878 88.9651 392.878C88.0008 392.878 87.2462 393.39 86.7012 394.415C86.1561 395.427 85.8836 396.985 85.8836 399.091ZM88.9651 405.305C89.9433 405.305 90.705 404.8 91.25 403.788C91.795 402.763 92.0675 401.197 92.0675 399.091C92.0675 397.304 91.8928 395.919 91.5435 394.935L86.8898 404.225C87.3929 404.945 88.0847 405.305 88.9651 405.305Z" fill="url(#paint16_linear_175_1868)" fill-opacity="0.6"/>
<path d="M90.2228 428.89H93.3043V429.992H85.3176V428.89H88.8812V417.21L85.4853 419.226L84.8984 418.291L89.0909 415.714H90.2228V428.89Z" fill="url(#paint17_linear_175_1868)" fill-opacity="0.6"/>
<path d="M88.9651 439.257C90.4604 439.257 91.5924 439.888 92.361 441.149C93.1436 442.396 93.5349 444.211 93.5349 446.594C93.5349 448.977 93.1436 450.798 92.361 452.059C91.5924 453.32 90.4604 453.95 88.9651 453.95C87.4838 453.95 86.3518 453.32 85.5692 452.059C84.7866 450.798 84.3953 448.977 84.3953 446.594C84.3953 444.224 84.7866 442.409 85.5692 441.149C86.3518 439.888 87.4838 439.257 88.9651 439.257ZM85.8836 446.594C85.8836 448.284 86.0374 449.607 86.3448 450.563L90.9985 441.356C90.5093 440.705 89.8315 440.38 88.9651 440.38C88.0008 440.38 87.2462 440.892 86.7012 441.918C86.1561 442.929 85.8836 444.488 85.8836 446.594ZM88.9651 452.807C89.9433 452.807 90.705 452.302 91.25 451.29C91.795 450.265 92.0675 448.699 92.0675 446.594C92.0675 444.806 91.8928 443.421 91.5435 442.437L86.8898 451.727C87.3929 452.447 88.0847 452.807 88.9651 452.807Z" fill="url(#paint18_linear_175_1868)" fill-opacity="0.6"/>
<path d="M90.2228 476.392H93.3043V477.494H85.3176V476.392H88.8812V464.713L85.4853 466.728L84.8984 465.793L89.0909 463.216H90.2228V476.392Z" fill="url(#paint19_linear_175_1868)" fill-opacity="0.6"/>
<path d="M88.9651 486.76C90.4604 486.76 91.5924 487.39 92.361 488.651C93.1436 489.898 93.5349 491.713 93.5349 494.096C93.5349 496.479 93.1436 498.301 92.361 499.561C91.5924 500.822 90.4604 501.453 88.9651 501.453C87.4838 501.453 86.3518 500.822 85.5692 499.561C84.7866 498.301 84.3953 496.479 84.3953 494.096C84.3953 491.726 84.7866 489.911 85.5692 488.651C86.3518 487.39 87.4838 486.76 88.9651 486.76ZM85.8836 494.096C85.8836 495.786 86.0374 497.109 86.3448 498.065L90.9985 488.859C90.5093 488.207 89.8315 487.882 88.9651 487.882C88.0008 487.882 87.2462 488.394 86.7012 489.42C86.1561 490.431 85.8836 491.99 85.8836 494.096ZM88.9651 500.31C89.9433 500.31 90.705 499.804 91.25 498.792C91.795 497.767 92.0675 496.202 92.0675 494.096C92.0675 492.308 91.8928 490.923 91.5435 489.939L86.8898 499.229C87.3929 499.949 88.0847 500.31 88.9651 500.31Z" fill="url(#paint20_linear_175_1868)" fill-opacity="0.6"/>
<path d="M88.9651 510.511C90.4604 510.511 91.5924 511.141 92.361 512.402C93.1436 513.649 93.5349 515.464 93.5349 517.847C93.5349 520.23 93.1436 522.052 92.361 523.312C91.5924 524.573 90.4604 525.204 88.9651 525.204C87.4838 525.204 86.3518 524.573 85.5692 523.312C84.7866 522.052 84.3953 520.23 84.3953 517.847C84.3953 515.478 84.7866 513.663 85.5692 512.402C86.3518 511.141 87.4838 510.511 88.9651 510.511ZM85.8836 517.847C85.8836 519.537 86.0374 520.86 86.3448 521.816L90.9985 512.61C90.5093 511.958 89.8315 511.633 88.9651 511.633C88.0008 511.633 87.2462 512.145 86.7012 513.171C86.1561 514.182 85.8836 515.741 85.8836 517.847ZM88.9651 524.061C89.9433 524.061 90.705 523.555 91.25 522.543C91.795 521.518 92.0675 519.953 92.0675 517.847C92.0675 516.059 91.8928 514.674 91.5435 513.69L86.8898 522.98C87.3929 523.7 88.0847 524.061 88.9651 524.061Z" fill="url(#paint21_linear_175_1868)" fill-opacity="0.6"/>
<path d="M90.2228 547.645H93.3043V548.747H85.3176V547.645H88.8812V535.966L85.4853 537.982L84.8984 537.046L89.0909 534.469H90.2228V547.645Z" fill="url(#paint22_linear_175_1868)" fill-opacity="0.6"/>
<path d="M88.9651 558.013C90.4604 558.013 91.5924 558.643 92.361 559.904C93.1436 561.151 93.5349 562.966 93.5349 565.349C93.5349 567.732 93.1436 569.554 92.361 570.815C91.5924 572.075 90.4604 572.706 88.9651 572.706C87.4838 572.706 86.3518 572.075 85.5692 570.815C84.7866 569.554 84.3953 567.732 84.3953 565.349C84.3953 562.98 84.7866 561.165 85.5692 559.904C86.3518 558.643 87.4838 558.013 88.9651 558.013ZM85.8836 565.349C85.8836 567.039 86.0374 568.362 86.3448 569.318L90.9985 560.112C90.5093 559.461 89.8315 559.135 88.9651 559.135C88.0008 559.135 87.2462 559.648 86.7012 560.673C86.1561 561.684 85.8836 563.243 85.8836 565.349ZM88.9651 571.563C89.9433 571.563 90.705 571.057 91.25 570.046C91.795 569.02 92.0675 567.455 92.0675 565.349C92.0675 563.562 91.8928 562.176 91.5435 561.192L86.8898 570.482C87.3929 571.202 88.0847 571.563 88.9651 571.563Z" fill="url(#paint23_linear_175_1868)" fill-opacity="0.6"/>
<path d="M90.2228 595.147H93.3043V596.249H85.3176V595.147H88.8812V583.468L85.4853 585.484L84.8984 584.549L89.0909 581.972H90.2228V595.147Z" fill="url(#paint24_linear_175_1868)" fill-opacity="0.6"/>
<path d="M90.2228 618.899H93.3043V620H85.3176V618.899H88.8812V607.219L85.4853 609.235L84.8984 608.3L89.0909 605.723H90.2228V618.899Z" fill="url(#paint25_linear_175_1868)" fill-opacity="0.6"/>
<path d="M30.5698 344.253C32.0651 344.253 33.1971 344.884 33.9657 346.144C34.7483 347.391 35.1396 349.206 35.1396 351.589C35.1396 353.972 34.7483 355.794 33.9657 357.055C33.1971 358.316 32.0651 358.946 30.5698 358.946C29.0885 358.946 27.9565 358.316 27.1739 357.055C26.3913 355.794 26 353.972 26 351.589C26 349.22 26.3913 347.405 27.1739 346.144C27.9565 344.884 29.0885 344.253 30.5698 344.253ZM27.4883 351.589C27.4883 353.28 27.6421 354.603 27.9495 355.559L32.6032 346.352C32.114 345.701 31.4363 345.375 30.5698 345.375C29.6055 345.375 28.8509 345.888 28.3059 346.913C27.7608 347.925 27.4883 349.483 27.4883 351.589ZM30.5698 357.803C31.5481 357.803 32.3097 357.297 32.8547 356.286C33.3997 355.261 33.6722 353.695 33.6722 351.589C33.6722 349.802 33.4976 348.417 33.1482 347.433L28.4945 356.722C28.9976 357.443 29.6894 357.803 30.5698 357.803Z" fill="url(#paint26_linear_175_1868)" fill-opacity="0.6"/>
<path d="M30.5698 368.004C32.0651 368.004 33.1971 368.635 33.9657 369.895C34.7483 371.142 35.1396 372.957 35.1396 375.34C35.1396 377.723 34.7483 379.545 33.9657 380.806C33.1971 382.067 32.0651 382.697 30.5698 382.697C29.0885 382.697 27.9565 382.067 27.1739 380.806C26.3913 379.545 26 377.723 26 375.34C26 372.971 26.3913 371.156 27.1739 369.895C27.9565 368.635 29.0885 368.004 30.5698 368.004ZM27.4883 375.34C27.4883 377.031 27.6421 378.354 27.9495 379.31L32.6032 370.103C32.114 369.452 31.4363 369.126 30.5698 369.126C29.6055 369.126 28.8509 369.639 28.3059 370.664C27.7608 371.676 27.4883 373.234 27.4883 375.34ZM30.5698 381.554C31.5481 381.554 32.3097 381.049 32.8547 380.037C33.3997 379.012 33.6722 377.446 33.6722 375.34C33.6722 373.553 33.4976 372.168 33.1482 371.184L28.4945 380.474C28.9976 381.194 29.6894 381.554 30.5698 381.554Z" fill="url(#paint27_linear_175_1868)" fill-opacity="0.6"/>
<path d="M31.8276 405.139H34.909V406.24H26.9223V405.139H30.486V393.459L27.09 395.475L26.5031 394.54L30.6956 391.963H31.8276V405.139Z" fill="url(#paint28_linear_175_1868)" fill-opacity="0.6"/>
<path d="M30.5698 415.506C32.0651 415.506 33.1971 416.137 33.9657 417.398C34.7483 418.644 35.1396 420.459 35.1396 422.842C35.1396 425.225 34.7483 427.047 33.9657 428.308C33.1971 429.569 32.0651 430.199 30.5698 430.199C29.0885 430.199 27.9565 429.569 27.1739 428.308C26.3913 427.047 26 425.225 26 422.842C26 420.473 26.3913 418.658 27.1739 417.398C27.9565 416.137 29.0885 415.506 30.5698 415.506ZM27.4883 422.842C27.4883 424.533 27.6421 425.856 27.9495 426.812L32.6032 417.605C32.114 416.954 31.4363 416.629 30.5698 416.629C29.6055 416.629 28.8509 417.141 28.3059 418.166C27.7608 419.178 27.4883 420.737 27.4883 422.842ZM30.5698 429.056C31.5481 429.056 32.3097 428.551 32.8547 427.539C33.3997 426.514 33.6722 424.948 33.6722 422.842C33.6722 421.055 33.4976 419.67 33.1482 418.686L28.4945 427.976C28.9976 428.696 29.6894 429.056 30.5698 429.056Z" fill="url(#paint29_linear_175_1868)" fill-opacity="0.6"/>
<path d="M31.8276 452.641H34.909V453.743H26.9223V452.641H30.486V440.962L27.09 442.977L26.5031 442.042L30.6956 439.465H31.8276V452.641Z" fill="url(#paint30_linear_175_1868)" fill-opacity="0.6"/>
<path d="M31.8276 476.392H34.909V477.494H26.9223V476.392H30.486V464.713L27.09 466.728L26.5031 465.793L30.6956 463.216H31.8276V476.392Z" fill="url(#paint31_linear_175_1868)" fill-opacity="0.6"/>
<path d="M70.7577 310.135H73.8392V311.236H65.8525V310.135H69.4162V298.455L66.0202 300.471L65.4333 299.536L69.6258 296.959H70.7577V310.135Z" fill="url(#paint32_linear_175_1868)" fill-opacity="0.6"/>
<path d="M69.5 320.502C70.9953 320.502 72.1273 321.133 72.8959 322.393C73.6785 323.64 74.0698 325.455 74.0698 327.838C74.0698 330.221 73.6785 332.043 72.8959 333.304C72.1273 334.565 70.9953 335.195 69.5 335.195C68.0187 335.195 66.8867 334.565 66.1041 333.304C65.3215 332.043 64.9302 330.221 64.9302 327.838C64.9302 325.469 65.3215 323.654 66.1041 322.393C66.8867 321.133 68.0187 320.502 69.5 320.502ZM66.4185 327.838C66.4185 329.529 66.5723 330.852 66.8797 331.808L71.5334 322.601C71.0442 321.95 70.3664 321.624 69.5 321.624C68.5357 321.624 67.7811 322.137 67.2361 323.162C66.691 324.174 66.4185 325.732 66.4185 327.838ZM69.5 334.052C70.4782 334.052 71.2399 333.546 71.7849 332.535C72.3299 331.51 72.6024 329.944 72.6024 327.838C72.6024 326.051 72.4277 324.665 72.0784 323.682L67.4247 332.971C67.9278 333.692 68.6196 334.052 69.5 334.052Z" fill="url(#paint33_linear_175_1868)" fill-opacity="0.6"/>
<path d="M70.7577 357.637H73.8392V358.738H65.8525V357.637H69.4162V345.957L66.0202 347.973L65.4333 347.038L69.6258 344.461H70.7577V357.637Z" fill="url(#paint34_linear_175_1868)" fill-opacity="0.6"/>
<path d="M70.7577 381.388H73.8392V382.489H65.8525V381.388H69.4162V369.708L66.0202 371.724L65.4333 370.789L69.6258 368.212H70.7577V381.388Z" fill="url(#paint35_linear_175_1868)" fill-opacity="0.6"/>
<path d="M69.5 391.755C70.9953 391.755 72.1273 392.386 72.8959 393.646C73.6785 394.893 74.0698 396.708 74.0698 399.091C74.0698 401.474 73.6785 403.296 72.8959 404.557C72.1273 405.818 70.9953 406.448 69.5 406.448C68.0187 406.448 66.8867 405.818 66.1041 404.557C65.3215 403.296 64.9302 401.474 64.9302 399.091C64.9302 396.722 65.3215 394.907 66.1041 393.646C66.8867 392.386 68.0187 391.755 69.5 391.755ZM66.4185 399.091C66.4185 400.782 66.5723 402.105 66.8797 403.061L71.5334 393.854C71.0442 393.203 70.3664 392.878 69.5 392.878C68.5357 392.878 67.7811 393.39 67.2361 394.415C66.691 395.427 66.4185 396.985 66.4185 399.091ZM69.5 405.305C70.4782 405.305 71.2399 404.8 71.7849 403.788C72.3299 402.763 72.6024 401.197 72.6024 399.091C72.6024 397.304 72.4277 395.919 72.0784 394.935L67.4247 404.225C67.9278 404.945 68.6196 405.305 69.5 405.305Z" fill="url(#paint36_linear_175_1868)" fill-opacity="0.6"/>
<path d="M70.7577 428.89H73.8392V429.992H65.8525V428.89H69.4162V417.21L66.0202 419.226L65.4333 418.291L69.6258 415.714H70.7577V428.89Z" fill="url(#paint37_linear_175_1868)" fill-opacity="0.6"/>
<path d="M70.7577 452.641H73.8392V453.743H65.8525V452.641H69.4162V440.962L66.0202 442.977L65.4333 442.042L69.6258 439.465H70.7577V452.641Z" fill="url(#paint38_linear_175_1868)" fill-opacity="0.6"/>
<path d="M69.5 463.008C70.9953 463.008 72.1273 463.639 72.8959 464.9C73.6785 466.147 74.0698 467.962 74.0698 470.345C74.0698 472.728 73.6785 474.549 72.8959 475.81C72.1273 477.071 70.9953 477.701 69.5 477.701C68.0187 477.701 66.8867 477.071 66.1041 475.81C65.3215 474.549 64.9302 472.728 64.9302 470.345C64.9302 467.975 65.3215 466.16 66.1041 464.9C66.8867 463.639 68.0187 463.008 69.5 463.008ZM66.4185 470.345C66.4185 472.035 66.5723 473.358 66.8797 474.314L71.5334 465.107C71.0442 464.456 70.3664 464.131 69.5 464.131C68.5357 464.131 67.7811 464.643 67.2361 465.669C66.691 466.68 66.4185 468.239 66.4185 470.345ZM69.5 476.558C70.4782 476.558 71.2399 476.053 71.7849 475.041C72.3299 474.016 72.6024 472.451 72.6024 470.345C72.6024 468.557 72.4277 467.172 72.0784 466.188L67.4247 475.478C67.9278 476.198 68.6196 476.558 69.5 476.558Z" fill="url(#paint39_linear_175_1868)" fill-opacity="0.6"/>
<path d="M70.7577 500.143H73.8392V501.245H65.8525V500.143H69.4162V488.464L66.0202 490.48L65.4333 489.544L69.6258 486.967H70.7577V500.143Z" fill="url(#paint40_linear_175_1868)" fill-opacity="0.6"/>
<path d="M69.5 510.511C70.9953 510.511 72.1273 511.141 72.8959 512.402C73.6785 513.649 74.0698 515.464 74.0698 517.847C74.0698 520.23 73.6785 522.052 72.8959 523.312C72.1273 524.573 70.9953 525.204 69.5 525.204C68.0187 525.204 66.8867 524.573 66.1041 523.312C65.3215 522.052 64.9302 520.23 64.9302 517.847C64.9302 515.478 65.3215 513.663 66.1041 512.402C66.8867 511.141 68.0187 510.511 69.5 510.511ZM66.4185 517.847C66.4185 519.537 66.5723 520.86 66.8797 521.816L71.5334 512.61C71.0442 511.958 70.3664 511.633 69.5 511.633C68.5357 511.633 67.7811 512.145 67.2361 513.171C66.691 514.182 66.4185 515.741 66.4185 517.847ZM69.5 524.061C70.4782 524.061 71.2399 523.555 71.7849 522.543C72.3299 521.518 72.6024 519.953 72.6024 517.847C72.6024 516.059 72.4277 514.674 72.0784 513.69L67.4247 522.98C67.9278 523.7 68.6196 524.061 69.5 524.061Z" fill="url(#paint41_linear_175_1868)" fill-opacity="0.6"/>
<path d="M108.43 296.751C109.926 296.751 111.057 297.381 111.826 298.642C112.609 299.889 113 301.704 113 304.087C113 306.47 112.609 308.292 111.826 309.553C111.057 310.814 109.926 311.444 108.43 311.444C106.949 311.444 105.817 310.814 105.034 309.553C104.252 308.292 103.86 306.47 103.86 304.087C103.86 301.718 104.252 299.903 105.034 298.642C105.817 297.381 106.949 296.751 108.43 296.751ZM105.349 304.087C105.349 305.777 105.502 307.101 105.81 308.057L110.464 298.85C109.974 298.199 109.297 297.873 108.43 297.873C107.466 297.873 106.711 298.386 106.166 299.411C105.621 300.423 105.349 301.981 105.349 304.087ZM108.43 310.301C109.408 310.301 110.17 309.795 110.715 308.784C111.26 307.759 111.533 306.193 111.533 304.087C111.533 302.3 111.358 300.914 111.009 299.931L106.355 309.22C106.858 309.941 107.55 310.301 108.43 310.301Z" fill="url(#paint42_linear_175_1868)" fill-opacity="0.6"/>
<path d="M109.688 333.886H112.769V334.987H104.783V333.886H108.346V322.206L104.95 324.222L104.363 323.287L108.556 320.71H109.688V333.886Z" fill="url(#paint43_linear_175_1868)" fill-opacity="0.6"/>
<path d="M109.688 357.637H112.769V358.738H104.783V357.637H108.346V345.957L104.95 347.973L104.363 347.038L108.556 344.461H109.688V357.637Z" fill="url(#paint44_linear_175_1868)" fill-opacity="0.6"/>
<path d="M108.43 368.004C109.926 368.004 111.057 368.635 111.826 369.895C112.609 371.142 113 372.957 113 375.34C113 377.723 112.609 379.545 111.826 380.806C111.057 382.067 109.926 382.697 108.43 382.697C106.949 382.697 105.817 382.067 105.034 380.806C104.252 379.545 103.86 377.723 103.86 375.34C103.86 372.971 104.252 371.156 105.034 369.895C105.817 368.635 106.949 368.004 108.43 368.004ZM105.349 375.34C105.349 377.031 105.502 378.354 105.81 379.31L110.464 370.103C109.974 369.452 109.297 369.126 108.43 369.126C107.466 369.126 106.711 369.639 106.166 370.664C105.621 371.676 105.349 373.234 105.349 375.34ZM108.43 381.554C109.408 381.554 110.17 381.049 110.715 380.037C111.26 379.012 111.533 377.446 111.533 375.34C111.533 373.553 111.358 372.168 111.009 371.184L106.355 380.474C106.858 381.194 107.55 381.554 108.43 381.554Z" fill="url(#paint45_linear_175_1868)" fill-opacity="0.6"/>
<path d="M108.43 391.755C109.926 391.755 111.057 392.386 111.826 393.646C112.609 394.893 113 396.708 113 399.091C113 401.474 112.609 403.296 111.826 404.557C111.057 405.818 109.926 406.448 108.43 406.448C106.949 406.448 105.817 405.818 105.034 404.557C104.252 403.296 103.86 401.474 103.86 399.091C103.86 396.722 104.252 394.907 105.034 393.646C105.817 392.386 106.949 391.755 108.43 391.755ZM105.349 399.091C105.349 400.782 105.502 402.105 105.81 403.061L110.464 393.854C109.974 393.203 109.297 392.878 108.43 392.878C107.466 392.878 106.711 393.39 106.166 394.415C105.621 395.427 105.349 396.985 105.349 399.091ZM108.43 405.305C109.408 405.305 110.17 404.8 110.715 403.788C111.26 402.763 111.533 401.197 111.533 399.091C111.533 397.304 111.358 395.919 111.009 394.935L106.355 404.225C106.858 404.945 107.55 405.305 108.43 405.305Z" fill="url(#paint46_linear_175_1868)" fill-opacity="0.6"/>
<g opacity="0.6">
<path d="M936.93 -27C938.356 -27 939.436 -26.395 940.17 -25.1851C940.916 -23.9885 941.29 -22.2468 941.29 -19.9599C941.29 -17.673 940.916 -15.9246 940.17 -14.7147C939.436 -13.5048 938.356 -12.8998 936.93 -12.8998C935.517 -12.8998 934.437 -13.5048 933.69 -14.7147C932.943 -15.9246 932.57 -17.673 932.57 -19.9599C932.57 -22.2335 932.943 -23.9752 933.69 -25.1851C934.437 -26.395 935.517 -27 936.93 -27ZM933.99 -19.9599C933.99 -18.3378 934.137 -17.068 934.43 -16.1506L938.87 -24.9857C938.403 -25.6106 937.756 -25.923 936.93 -25.923C936.01 -25.923 935.29 -25.4311 934.77 -24.4472C934.25 -23.4766 933.99 -21.9808 933.99 -19.9599ZM936.93 -13.9967C937.863 -13.9967 938.59 -14.482 939.11 -15.4526C939.63 -16.4365 939.89 -17.9389 939.89 -19.9599C939.89 -21.675 939.723 -23.0046 939.39 -23.9486L934.95 -15.0338C935.43 -14.3424 936.09 -13.9967 936.93 -13.9967Z" fill="url(#paint47_linear_175_1868)"/>
<path d="M938.13 8.63655H941.07V9.69356H933.45V8.63655H936.85V-2.57181L933.61 -0.637274L933.05 -1.53474L937.05 -4.00776H938.13V8.63655Z" fill="url(#paint48_linear_175_1868)"/>
<path d="M936.93 18.5856C938.356 18.5856 939.436 19.1906 940.17 20.4005C940.916 21.5971 941.29 23.3389 941.29 25.6257C941.29 27.9126 940.916 29.661 940.17 30.8709C939.436 32.0808 938.356 32.6858 936.93 32.6858C935.517 32.6858 934.437 32.0808 933.69 30.8709C932.943 29.661 932.57 27.9126 932.57 25.6257C932.57 23.3521 932.943 21.6104 933.69 20.4005C934.437 19.1906 935.517 18.5856 936.93 18.5856ZM933.99 25.6257C933.99 27.2478 934.137 28.5176 934.43 29.435L938.87 20.5999C938.403 19.975 937.756 19.6626 936.93 19.6626C936.01 19.6626 935.29 20.1545 934.77 21.1384C934.25 22.109 933.99 23.6048 933.99 25.6257ZM936.93 31.5889C937.863 31.5889 938.59 31.1036 939.11 30.133C939.63 29.1491 939.89 27.6467 939.89 25.6257C939.89 23.9106 939.723 22.581 939.39 21.637L934.95 30.5518C935.43 31.2432 936.09 31.5889 936.93 31.5889Z" fill="url(#paint49_linear_175_1868)"/>
<path d="M938.13 54.2221H941.07V55.2792H933.45V54.2221H936.85V43.0138L933.61 44.9483L933.05 44.0509L937.05 41.5778H938.13V54.2221Z" fill="url(#paint50_linear_175_1868)"/>
<path d="M938.13 77.015H941.07V78.072H933.45V77.015H936.85V65.8066L933.61 67.7411L933.05 66.8437L937.05 64.3706H938.13V77.015Z" fill="url(#paint51_linear_175_1868)"/>
<path d="M936.93 86.964C938.356 86.964 939.436 87.569 940.17 88.7789C940.916 89.9755 941.29 91.7173 941.29 94.0041C941.29 96.291 940.916 98.0394 940.17 99.2493C939.436 100.459 938.356 101.064 936.93 101.064C935.517 101.064 934.437 100.459 933.69 99.2493C932.943 98.0394 932.57 96.291 932.57 94.0041C932.57 91.7306 932.943 89.9888 933.69 88.7789C934.437 87.569 935.517 86.964 936.93 86.964ZM933.99 94.0041C933.99 95.6262 934.137 96.896 934.43 97.8134L938.87 88.9783C938.403 88.3534 937.756 88.041 936.93 88.041C936.01 88.041 935.29 88.5329 934.77 89.5168C934.25 90.4874 933.99 91.9832 933.99 94.0041ZM936.93 99.9673C937.863 99.9673 938.59 99.482 939.11 98.5114C939.63 97.5275 939.89 96.0251 939.89 94.0041C939.89 92.289 939.723 90.9594 939.39 90.0154L934.95 98.9302C935.43 99.6216 936.09 99.9673 936.93 99.9673Z" fill="url(#paint52_linear_175_1868)"/>
<path d="M938.13 122.601H941.07V123.658H933.45V122.601H936.85V111.392L933.61 113.327L933.05 112.429L937.05 109.956H938.13V122.601Z" fill="url(#paint53_linear_175_1868)"/>
<path d="M936.93 132.55C938.356 132.55 939.436 133.155 940.17 134.365C940.916 135.561 941.29 137.303 941.29 139.59C941.29 141.877 940.916 143.625 940.17 144.835C939.436 146.045 938.356 146.65 936.93 146.65C935.517 146.65 934.437 146.045 933.69 144.835C932.943 143.625 932.57 141.877 932.57 139.59C932.57 137.316 932.943 135.574 933.69 134.365C934.437 133.155 935.517 132.55 936.93 132.55ZM933.99 139.59C933.99 141.212 934.137 142.482 934.43 143.399L938.87 134.564C938.403 133.939 937.756 133.627 936.93 133.627C936.01 133.627 935.29 134.119 934.77 135.102C934.25 136.073 933.99 137.569 933.99 139.59ZM936.93 145.553C937.863 145.553 938.59 145.068 939.11 144.097C939.63 143.113 939.89 141.611 939.89 139.59C939.89 137.875 939.723 136.545 939.39 135.601L934.95 144.516C935.43 145.207 936.09 145.553 936.93 145.553Z" fill="url(#paint54_linear_175_1868)"/>
<path d="M936.93 155.342C938.356 155.342 939.436 155.947 940.17 157.157C940.916 158.354 941.29 160.096 941.29 162.383C941.29 164.669 940.916 166.418 940.17 167.628C939.436 168.838 938.356 169.443 936.93 169.443C935.517 169.443 934.437 168.838 933.69 167.628C932.943 166.418 932.57 164.669 932.57 162.383C932.57 160.109 932.943 158.367 933.69 157.157C934.437 155.947 935.517 155.342 936.93 155.342ZM933.99 162.383C933.99 164.005 934.137 165.274 934.43 166.192L938.87 157.357C938.403 156.732 937.756 156.419 936.93 156.419C936.01 156.419 935.29 156.911 934.77 157.895C934.25 158.866 933.99 160.362 933.99 162.383ZM936.93 168.346C937.863 168.346 938.59 167.86 939.11 166.89C939.63 165.906 939.89 164.404 939.89 162.383C939.89 160.667 939.723 159.338 939.39 158.394L934.95 167.309C935.43 168 936.09 168.346 936.93 168.346Z" fill="url(#paint55_linear_175_1868)"/>
<path d="M938.13 190.979H941.07V192.036H933.45V190.979H936.85V179.771L933.61 181.705L933.05 180.808L937.05 178.335H938.13V190.979Z" fill="url(#paint56_linear_175_1868)"/>
<path d="M936.93 200.928C938.356 200.928 939.436 201.533 940.17 202.743C940.916 203.94 941.29 205.681 941.29 207.968C941.29 210.255 940.916 212.003 940.17 213.213C939.436 214.423 938.356 215.028 936.93 215.028C935.517 215.028 934.437 214.423 933.69 213.213C932.943 212.003 932.57 210.255 932.57 207.968C932.57 205.695 932.943 203.953 933.69 202.743C934.437 201.533 935.517 200.928 936.93 200.928ZM933.99 207.968C933.99 209.59 934.137 210.86 934.43 211.777L938.87 202.942C938.403 202.317 937.756 202.005 936.93 202.005C936.01 202.005 935.29 202.497 934.77 203.481C934.25 204.451 933.99 205.947 933.99 207.968ZM936.93 213.931C937.863 213.931 938.59 213.446 939.11 212.475C939.63 211.492 939.89 209.989 939.89 207.968C939.89 206.253 939.723 204.923 939.39 203.979L934.95 212.894C935.43 213.586 936.09 213.931 936.93 213.931Z" fill="url(#paint57_linear_175_1868)"/>
<path d="M938.13 236.565H941.07V237.622H933.45V236.565H936.85V225.356L933.61 227.291L933.05 226.393L937.05 223.92H938.13V236.565Z" fill="url(#paint58_linear_175_1868)"/>
<path d="M938.13 259.357H941.07V260.414H933.45V259.357H936.85V248.149L933.61 250.084L933.05 249.186L937.05 246.713H938.13V259.357Z" fill="url(#paint59_linear_175_1868)"/>
<path d="M974.07 18.5856C975.497 18.5856 976.577 19.1906 977.31 20.4005C978.057 21.5971 978.43 23.3389 978.43 25.6257C978.43 27.9126 978.057 29.661 977.31 30.8709C976.577 32.0808 975.497 32.6858 974.07 32.6858C972.657 32.6858 971.577 32.0808 970.83 30.8709C970.084 29.661 969.71 27.9126 969.71 25.6257C969.71 23.3521 970.084 21.6104 970.83 20.4005C971.577 19.1906 972.657 18.5856 974.07 18.5856ZM971.13 25.6257C971.13 27.2478 971.277 28.5176 971.57 29.435L976.01 20.5999C975.543 19.975 974.897 19.6626 974.07 19.6626C973.15 19.6626 972.43 20.1545 971.91 21.1384C971.39 22.109 971.13 23.6048 971.13 25.6257ZM974.07 31.5889C975.003 31.5889 975.73 31.1036 976.25 30.133C976.77 29.1491 977.03 27.6467 977.03 25.6257C977.03 23.9106 976.863 22.581 976.53 21.637L972.09 30.5518C972.57 31.2432 973.23 31.5889 974.07 31.5889Z" fill="url(#paint60_linear_175_1868)"/>
<path d="M975.27 54.2221H978.21V55.2792H970.59V54.2221H973.99V43.0138L970.75 44.9483L970.19 44.0509L974.19 41.5778H975.27V54.2221Z" fill="url(#paint61_linear_175_1868)"/>
<path d="M974.07 64.1712C975.497 64.1712 976.577 64.7762 977.31 65.9861C978.057 67.1827 978.43 68.9245 978.43 71.2113C978.43 73.4982 978.057 75.2466 977.31 76.4565C976.577 77.6665 975.497 78.2714 974.07 78.2714C972.657 78.2714 971.577 77.6665 970.83 76.4565C970.084 75.2466 969.71 73.4982 969.71 71.2113C969.71 68.9378 970.084 67.196 970.83 65.9861C971.577 64.7762 972.657 64.1712 974.07 64.1712ZM971.13 71.2113C971.13 72.8334 971.277 74.1032 971.57 75.0206L976.01 66.1855C975.543 65.5606 974.897 65.2482 974.07 65.2482C973.15 65.2482 972.43 65.7401 971.91 66.724C971.39 67.6946 971.13 69.1904 971.13 71.2113ZM974.07 77.1745C975.003 77.1745 975.73 76.6892 976.25 75.7186C976.77 74.7347 977.03 73.2323 977.03 71.2113C977.03 69.4962 976.863 68.1666 976.53 67.2226L972.09 76.1374C972.57 76.8288 973.23 77.1745 974.07 77.1745Z" fill="url(#paint62_linear_175_1868)"/>
<path d="M974.07 86.964C975.497 86.964 976.577 87.569 977.31 88.7789C978.057 89.9755 978.43 91.7173 978.43 94.0041C978.43 96.291 978.057 98.0394 977.31 99.2493C976.577 100.459 975.497 101.064 974.07 101.064C972.657 101.064 971.577 100.459 970.83 99.2493C970.084 98.0394 969.71 96.291 969.71 94.0041C969.71 91.7306 970.084 89.9888 970.83 88.7789C971.577 87.569 972.657 86.964 974.07 86.964ZM971.13 94.0041C971.13 95.6262 971.277 96.896 971.57 97.8134L976.01 88.9783C975.543 88.3534 974.897 88.041 974.07 88.041C973.15 88.041 972.43 88.5329 971.91 89.5168C971.39 90.4874 971.13 91.9832 971.13 94.0041ZM974.07 99.9673C975.003 99.9673 975.73 99.482 976.25 98.5114C976.77 97.5275 977.03 96.0251 977.03 94.0041C977.03 92.289 976.863 90.9594 976.53 90.0154L972.09 98.9302C972.57 99.6216 973.23 99.9673 974.07 99.9673Z" fill="url(#paint63_linear_175_1868)"/>
<path d="M975.27 122.601H978.21V123.658H970.59V122.601H973.99V111.392L970.75 113.327L970.19 112.429L974.19 109.956H975.27V122.601Z" fill="url(#paint64_linear_175_1868)"/>
<path d="M974.07 132.55C975.497 132.55 976.577 133.155 977.31 134.365C978.057 135.561 978.43 137.303 978.43 139.59C978.43 141.877 978.057 143.625 977.31 144.835C976.577 146.045 975.497 146.65 974.07 146.65C972.657 146.65 971.577 146.045 970.83 144.835C970.084 143.625 969.71 141.877 969.71 139.59C969.71 137.316 970.084 135.574 970.83 134.365C971.577 133.155 972.657 132.55 974.07 132.55ZM971.13 139.59C971.13 141.212 971.277 142.482 971.57 143.399L976.01 134.564C975.543 133.939 974.897 133.627 974.07 133.627C973.15 133.627 972.43 134.119 971.91 135.102C971.39 136.073 971.13 137.569 971.13 139.59ZM974.07 145.553C975.003 145.553 975.73 145.068 976.25 144.097C976.77 143.113 977.03 141.611 977.03 139.59C977.03 137.875 976.863 136.545 976.53 135.601L972.09 144.516C972.57 145.207 973.23 145.553 974.07 145.553Z" fill="url(#paint65_linear_175_1868)"/>
<path d="M975.27 168.186H978.21V169.243H970.59V168.186H973.99V156.978L970.75 158.912L970.19 158.015L974.19 155.542H975.27V168.186Z" fill="url(#paint66_linear_175_1868)"/>
<path d="M974.07 178.135C975.497 178.135 976.577 178.74 977.31 179.95C978.057 181.147 978.43 182.888 978.43 185.175C978.43 187.462 978.057 189.211 977.31 190.421C976.577 191.63 975.497 192.235 974.07 192.235C972.657 192.235 971.577 191.63 970.83 190.421C970.084 189.211 969.71 187.462 969.71 185.175C969.71 182.902 970.084 181.16 970.83 179.95C971.577 178.74 972.657 178.135 974.07 178.135ZM971.13 185.175C971.13 186.797 971.277 188.067 971.57 188.985L976.01 180.15C975.543 179.525 974.897 179.212 974.07 179.212C973.15 179.212 972.43 179.704 971.91 180.688C971.39 181.659 971.13 183.154 971.13 185.175ZM974.07 191.139C975.003 191.139 975.73 190.653 976.25 189.683C976.77 188.699 977.03 187.196 977.03 185.175C977.03 183.46 976.863 182.131 976.53 181.187L972.09 190.101C972.57 190.793 973.23 191.139 974.07 191.139Z" fill="url(#paint67_linear_175_1868)"/>
<path d="M974.07 200.928C975.497 200.928 976.577 201.533 977.31 202.743C978.057 203.94 978.43 205.681 978.43 207.968C978.43 210.255 978.057 212.003 977.31 213.213C976.577 214.423 975.497 215.028 974.07 215.028C972.657 215.028 971.577 214.423 970.83 213.213C970.084 212.003 969.71 210.255 969.71 207.968C969.71 205.695 970.084 203.953 970.83 202.743C971.577 201.533 972.657 200.928 974.07 200.928ZM971.13 207.968C971.13 209.59 971.277 210.86 971.57 211.777L976.01 202.942C975.543 202.317 974.897 202.005 974.07 202.005C973.15 202.005 972.43 202.497 971.91 203.481C971.39 204.451 971.13 205.947 971.13 207.968ZM974.07 213.931C975.003 213.931 975.73 213.446 976.25 212.475C976.77 211.492 977.03 209.989 977.03 207.968C977.03 206.253 976.863 204.923 976.53 203.979L972.09 212.894C972.57 213.586 973.23 213.931 974.07 213.931Z" fill="url(#paint68_linear_175_1868)"/>
<path d="M975.27 236.565H978.21V237.622H970.59V236.565H973.99V225.356L970.75 227.291L970.19 226.393L974.19 223.92H975.27V236.565Z" fill="url(#paint69_linear_175_1868)"/>
<path d="M974.07 246.514C975.497 246.514 976.577 247.119 977.31 248.329C978.057 249.525 978.43 251.267 978.43 253.554C978.43 255.841 978.057 257.589 977.31 258.799C976.577 260.009 975.497 260.614 974.07 260.614C972.657 260.614 971.577 260.009 970.83 258.799C970.084 257.589 969.71 255.841 969.71 253.554C969.71 251.28 970.084 249.538 970.83 248.329C971.577 247.119 972.657 246.514 974.07 246.514ZM971.13 253.554C971.13 255.176 971.277 256.446 971.57 257.363L976.01 248.528C975.543 247.903 974.897 247.591 974.07 247.591C973.15 247.591 972.43 248.083 971.91 249.066C971.39 250.037 971.13 251.533 971.13 253.554ZM974.07 259.517C975.003 259.517 975.73 259.032 976.25 258.061C976.77 257.077 977.03 255.575 977.03 253.554C977.03 251.839 976.863 250.509 976.53 249.565L972.09 258.48C972.57 259.171 973.23 259.517 974.07 259.517Z" fill="url(#paint70_linear_175_1868)"/>
<path d="M975.27 282.15H978.21V283.207H970.59V282.15H973.99V270.942L970.75 272.876L970.19 271.979L974.19 269.506H975.27V282.15Z" fill="url(#paint71_linear_175_1868)"/>
<path d="M975.27 304.943H978.21V306H970.59V304.943H973.99V293.735L970.75 295.669L970.19 294.772L974.19 292.299H975.27V304.943Z" fill="url(#paint72_linear_175_1868)"/>
<path d="M918.36 41.3784C919.786 41.3784 920.866 41.9834 921.599 43.1933C922.346 44.3899 922.719 46.1317 922.719 48.4185C922.719 50.7054 922.346 52.4538 921.599 53.6637C920.866 54.8736 919.786 55.4786 918.36 55.4786C916.946 55.4786 915.867 54.8736 915.12 53.6637C914.373 52.4538 914 50.7054 914 48.4185C914 46.145 914.373 44.4032 915.12 43.1933C915.867 41.9834 916.946 41.3784 918.36 41.3784ZM915.42 48.4185C915.42 50.0406 915.567 51.3104 915.86 52.2278L920.3 43.3927C919.833 42.7678 919.186 42.4554 918.36 42.4554C917.44 42.4554 916.72 42.9473 916.2 43.9312C915.68 44.9018 915.42 46.3976 915.42 48.4185ZM918.36 54.3817C919.293 54.3817 920.02 53.8964 920.54 52.9258C921.06 51.9419 921.319 50.4395 921.319 48.4185C921.319 46.7034 921.153 45.3738 920.82 44.4298L916.38 53.3446C916.86 54.036 917.52 54.3817 918.36 54.3817Z" fill="url(#paint73_linear_175_1868)"/>
<path d="M918.36 64.1712C919.786 64.1712 920.866 64.7762 921.599 65.9861C922.346 67.1827 922.719 68.9245 922.719 71.2113C922.719 73.4982 922.346 75.2466 921.599 76.4565C920.866 77.6665 919.786 78.2714 918.36 78.2714C916.946 78.2714 915.867 77.6665 915.12 76.4565C914.373 75.2466 914 73.4982 914 71.2113C914 68.9378 914.373 67.196 915.12 65.9861C915.867 64.7762 916.946 64.1712 918.36 64.1712ZM915.42 71.2113C915.42 72.8334 915.567 74.1032 915.86 75.0206L920.3 66.1855C919.833 65.5606 919.186 65.2482 918.36 65.2482C917.44 65.2482 916.72 65.7401 916.2 66.724C915.68 67.6946 915.42 69.1904 915.42 71.2113ZM918.36 77.1745C919.293 77.1745 920.02 76.6892 920.54 75.7186C921.06 74.7347 921.319 73.2323 921.319 71.2113C921.319 69.4962 921.153 68.1666 920.82 67.2226L916.38 76.1374C916.86 76.8288 917.52 77.1745 918.36 77.1745Z" fill="url(#paint74_linear_175_1868)"/>
<path d="M919.56 99.8078H922.499V100.865H914.88V99.8078H918.28V88.5994L915.04 90.5339L914.48 89.6365L918.48 87.1635H919.56V99.8078Z" fill="url(#paint75_linear_175_1868)"/>
<path d="M918.36 109.757C919.786 109.757 920.866 110.362 921.599 111.572C922.346 112.768 922.719 114.51 922.719 116.797C922.719 119.084 922.346 120.832 921.599 122.042C920.866 123.252 919.786 123.857 918.36 123.857C916.946 123.857 915.867 123.252 915.12 122.042C914.373 120.832 914 119.084 914 116.797C914 114.523 914.373 112.782 915.12 111.572C915.867 110.362 916.946 109.757 918.36 109.757ZM915.42 116.797C915.42 118.419 915.567 119.689 915.86 120.606L920.3 111.771C919.833 111.146 919.186 110.834 918.36 110.834C917.44 110.834 916.72 111.326 916.2 112.31C915.68 113.28 915.42 114.776 915.42 116.797ZM918.36 122.76C919.293 122.76 920.02 122.275 920.54 121.304C921.06 120.32 921.319 118.818 921.319 116.797C921.319 115.082 921.153 113.752 920.82 112.808L916.38 121.723C916.86 122.414 917.52 122.76 918.36 122.76Z" fill="url(#paint76_linear_175_1868)"/>
<path d="M919.56 145.393H922.499V146.45H914.88V145.393H918.28V134.185L915.04 136.12L914.48 135.222L918.48 132.749H919.56V145.393Z" fill="url(#paint77_linear_175_1868)"/>
<path d="M919.56 168.186H922.499V169.243H914.88V168.186H918.28V156.978L915.04 158.912L914.48 158.015L918.48 155.542H919.56V168.186Z" fill="url(#paint78_linear_175_1868)"/>
<path d="M956.7 8.63655H959.64V9.69356H952.02V8.63655H955.42V-2.57181L952.18 -0.637274L951.62 -1.53474L955.62 -4.00776H956.7V8.63655Z" fill="url(#paint79_linear_175_1868)"/>
<path d="M955.5 18.5856C956.927 18.5856 958.006 19.1906 958.74 20.4005C959.486 21.5971 959.86 23.3389 959.86 25.6257C959.86 27.9126 959.486 29.661 958.74 30.8709C958.006 32.0808 956.927 32.6858 955.5 32.6858C954.087 32.6858 953.007 32.0808 952.26 30.8709C951.514 29.661 951.14 27.9126 951.14 25.6257C951.14 23.3521 951.514 21.6104 952.26 20.4005C953.007 19.1906 954.087 18.5856 955.5 18.5856ZM952.56 25.6257C952.56 27.2478 952.707 28.5176 953 29.435L957.44 20.5999C956.973 19.975 956.327 19.6626 955.5 19.6626C954.58 19.6626 953.86 20.1545 953.34 21.1384C952.82 22.109 952.56 23.6048 952.56 25.6257ZM955.5 31.5889C956.433 31.5889 957.16 31.1036 957.68 30.133C958.2 29.1491 958.46 27.6467 958.46 25.6257C958.46 23.9106 958.293 22.581 957.96 21.637L953.52 30.5518C954 31.2432 954.66 31.5889 955.5 31.5889Z" fill="url(#paint80_linear_175_1868)"/>
<path d="M956.7 54.2221H959.64V55.2792H952.02V54.2221H955.42V43.0138L952.18 44.9483L951.62 44.0509L955.62 41.5778H956.7V54.2221Z" fill="url(#paint81_linear_175_1868)"/>
<path d="M956.7 77.015H959.64V78.072H952.02V77.015H955.42V65.8066L952.18 67.7411L951.62 66.8437L955.62 64.3706H956.7V77.015Z" fill="url(#paint82_linear_175_1868)"/>
<path d="M955.5 86.964C956.927 86.964 958.006 87.569 958.74 88.7789C959.486 89.9755 959.86 91.7173 959.86 94.0041C959.86 96.291 959.486 98.0394 958.74 99.2493C958.006 100.459 956.927 101.064 955.5 101.064C954.087 101.064 953.007 100.459 952.26 99.2493C951.514 98.0394 951.14 96.291 951.14 94.0041C951.14 91.7306 951.514 89.9888 952.26 88.7789C953.007 87.569 954.087 86.964 955.5 86.964ZM952.56 94.0041C952.56 95.6262 952.707 96.896 953 97.8134L957.44 88.9783C956.973 88.3534 956.327 88.041 955.5 88.041C954.58 88.041 953.86 88.5329 953.34 89.5168C952.82 90.4874 952.56 91.9832 952.56 94.0041ZM955.5 99.9673C956.433 99.9673 957.16 99.482 957.68 98.5114C958.2 97.5275 958.46 96.0251 958.46 94.0041C958.46 92.289 958.293 90.9594 957.96 90.0154L953.52 98.9302C954 99.6216 954.66 99.9673 955.5 99.9673Z" fill="url(#paint83_linear_175_1868)"/>
<path d="M956.7 122.601H959.64V123.658H952.02V122.601H955.42V111.392L952.18 113.327L951.62 112.429L955.62 109.956H956.7V122.601Z" fill="url(#paint84_linear_175_1868)"/>
<path d="M956.7 145.393H959.64V146.45H952.02V145.393H955.42V134.185L952.18 136.12L951.62 135.222L955.62 132.749H956.7V145.393Z" fill="url(#paint85_linear_175_1868)"/>
<path d="M955.5 155.342C956.927 155.342 958.006 155.947 958.74 157.157C959.486 158.354 959.86 160.096 959.86 162.383C959.86 164.669 959.486 166.418 958.74 167.628C958.006 168.838 956.927 169.443 955.5 169.443C954.087 169.443 953.007 168.838 952.26 167.628C951.514 166.418 951.14 164.669 951.14 162.383C951.14 160.109 951.514 158.367 952.26 157.157C953.007 155.947 954.087 155.342 955.5 155.342ZM952.56 162.383C952.56 164.005 952.707 165.274 953 166.192L957.44 157.357C956.973 156.732 956.327 156.419 955.5 156.419C954.58 156.419 953.86 156.911 953.34 157.895C952.82 158.866 952.56 160.362 952.56 162.383ZM955.5 168.346C956.433 168.346 957.16 167.86 957.68 166.89C958.2 165.906 958.46 164.404 958.46 162.383C958.46 160.667 958.293 159.338 957.96 158.394L953.52 167.309C954 168 954.66 168.346 955.5 168.346Z" fill="url(#paint86_linear_175_1868)"/>
<path d="M956.7 190.979H959.64V192.036H952.02V190.979H955.42V179.771L952.18 181.705L951.62 180.808L955.62 178.335H956.7V190.979Z" fill="url(#paint87_linear_175_1868)"/>
<path d="M955.5 200.928C956.927 200.928 958.006 201.533 958.74 202.743C959.486 203.94 959.86 205.681 959.86 207.968C959.86 210.255 959.486 212.003 958.74 213.213C958.006 214.423 956.927 215.028 955.5 215.028C954.087 215.028 953.007 214.423 952.26 213.213C951.514 212.003 951.14 210.255 951.14 207.968C951.14 205.695 951.514 203.953 952.26 202.743C953.007 201.533 954.087 200.928 955.5 200.928ZM952.56 207.968C952.56 209.59 952.707 210.86 953 211.777L957.44 202.942C956.973 202.317 956.327 202.005 955.5 202.005C954.58 202.005 953.86 202.497 953.34 203.481C952.82 204.451 952.56 205.947 952.56 207.968ZM955.5 213.931C956.433 213.931 957.16 213.446 957.68 212.475C958.2 211.492 958.46 209.989 958.46 207.968C958.46 206.253 958.293 204.923 957.96 203.979L953.52 212.894C954 213.586 954.66 213.931 955.5 213.931Z" fill="url(#paint88_linear_175_1868)"/>
<path d="M992.64 -4.2072C994.067 -4.2072 995.147 -3.60224 995.88 -2.39232C996.627 -1.1957 997 0.546049 997 2.83293C997 5.1198 996.627 6.86821 995.88 8.07812C995.147 9.28804 994.067 9.893 992.64 9.893C991.227 9.893 990.147 9.28804 989.401 8.07812C988.654 6.86821 988.281 5.1198 988.281 2.83293C988.281 0.559345 988.654 -1.1824 989.401 -2.39232C990.147 -3.60224 991.227 -4.2072 992.64 -4.2072ZM989.701 2.83293C989.701 4.45502 989.847 5.72477 990.14 6.64218L994.58 -2.19288C994.114 -2.81779 993.467 -3.13024 992.64 -3.13024C991.72 -3.13024 991 -2.63829 990.48 -1.6544C989.96 -0.683811 989.701 0.811966 989.701 2.83293ZM992.64 8.7961C993.574 8.7961 994.3 8.3108 994.82 7.34021C995.34 6.35632 995.6 4.85389 995.6 2.83293C995.6 1.11777 995.433 -0.211809 995.1 -1.15581L990.66 7.75902C991.14 8.45041 991.8 8.7961 992.64 8.7961Z" fill="url(#paint89_linear_175_1868)"/>
<path d="M993.84 31.4293H996.78V32.4864H989.161V31.4293H992.56V20.221L989.321 22.1555L988.761 21.2581L992.76 18.785H993.84V31.4293Z" fill="url(#paint90_linear_175_1868)"/>
<path d="M993.84 54.2221H996.78V55.2792H989.161V54.2221H992.56V43.0138L989.321 44.9483L988.761 44.0509L992.76 41.5778H993.84V54.2221Z" fill="url(#paint91_linear_175_1868)"/>
<path d="M992.64 64.1712C994.067 64.1712 995.147 64.7762 995.88 65.9861C996.627 67.1827 997 68.9245 997 71.2113C997 73.4982 996.627 75.2466 995.88 76.4565C995.147 77.6665 994.067 78.2714 992.64 78.2714C991.227 78.2714 990.147 77.6665 989.401 76.4565C988.654 75.2466 988.281 73.4982 988.281 71.2113C988.281 68.9378 988.654 67.196 989.401 65.9861C990.147 64.7762 991.227 64.1712 992.64 64.1712ZM989.701 71.2113C989.701 72.8334 989.847 74.1032 990.14 75.0206L994.58 66.1855C994.114 65.5606 993.467 65.2482 992.64 65.2482C991.72 65.2482 991 65.7401 990.48 66.724C989.96 67.6946 989.701 69.1904 989.701 71.2113ZM992.64 77.1745C993.574 77.1745 994.3 76.6892 994.82 75.7186C995.34 74.7347 995.6 73.2323 995.6 71.2113C995.6 69.4962 995.433 68.1666 995.1 67.2226L990.66 76.1374C991.14 76.8288 991.8 77.1745 992.64 77.1745Z" fill="url(#paint92_linear_175_1868)"/>
<path d="M992.64 86.964C994.067 86.964 995.147 87.569 995.88 88.7789C996.627 89.9755 997 91.7173 997 94.0041C997 96.291 996.627 98.0394 995.88 99.2493C995.147 100.459 994.067 101.064 992.64 101.064C991.227 101.064 990.147 100.459 989.401 99.2493C988.654 98.0394 988.281 96.291 988.281 94.0041C988.281 91.7306 988.654 89.9888 989.401 88.7789C990.147 87.569 991.227 86.964 992.64 86.964ZM989.701 94.0041C989.701 95.6262 989.847 96.896 990.14 97.8134L994.58 88.9783C994.114 88.3534 993.467 88.041 992.64 88.041C991.72 88.041 991 88.5329 990.48 89.5168C989.96 90.4874 989.701 91.9832 989.701 94.0041ZM992.64 99.9673C993.574 99.9673 994.3 99.482 994.82 98.5114C995.34 97.5275 995.6 96.0251 995.6 94.0041C995.6 92.289 995.433 90.9594 995.1 90.0154L990.66 98.9302C991.14 99.6216 991.8 99.9673 992.64 99.9673Z" fill="url(#paint93_linear_175_1868)"/>
</g>
<defs>
<filter id="filter0_f_175_1868" x="-541.19" y="-713.19" width="2141.38" height="1500.38" filterUnits="userSpaceOnUse" color-interpolation-filters="sRGB">
<feFlood flood-opacity="0" result="BackgroundImageFix"/>
<feBlend mode="normal" in="SourceGraphic" in2="BackgroundImageFix" result="shape"/>
<feGaussianBlur stdDeviation="200.095" result="effect1_foregroundBlur_175_1868"/>
</filter>
<linearGradient id="paint0_linear_175_1868" x1="69.5" y1="273" x2="69.5" y2="584.381" gradientUnits="userSpaceOnUse">
<stop stop-color="#F7DD43"/>
<stop offset="1" stop-color="#F7DD43" stop-opacity="0"/>
</linearGradient>
<linearGradient id="paint1_linear_175_1868" x1="69.5" y1="273" x2="69.5" y2="584.381" gradientUnits="userSpaceOnUse">
<stop stop-color="#F7DD43"/>
<stop offset="1" stop-color="#F7DD43" stop-opacity="0"/>
</linearGradient>
<linearGradient id="paint2_linear_175_1868" x1="69.5" y1="273" x2="69.5" y2="584.381" gradientUnits="userSpaceOnUse">
<stop stop-color="#F7DD43"/>
<stop offset="1" stop-color="#F7DD43" stop-opacity="0"/>
</linearGradient>
<linearGradient id="paint3_linear_175_1868" x1="69.5" y1="273" x2="69.5" y2="584.381" gradientUnits="userSpaceOnUse">
<stop stop-color="#F7DD43"/>
<stop offset="1" stop-color="#F7DD43" stop-opacity="0"/>
</linearGradient>
<linearGradient id="paint4_linear_175_1868" x1="69.5" y1="273" x2="69.5" y2="584.381" gradientUnits="userSpaceOnUse">
<stop stop-color="#F7DD43"/>
<stop offset="1" stop-color="#F7DD43" stop-opacity="0"/>
</linearGradient>
<linearGradient id="paint5_linear_175_1868" x1="69.5" y1="273" x2="69.5" y2="584.381" gradientUnits="userSpaceOnUse">
<stop stop-color="#F7DD43"/>
<stop offset="1" stop-color="#F7DD43" stop-opacity="0"/>
</linearGradient>
<linearGradient id="paint6_linear_175_1868" x1="69.5" y1="273" x2="69.5" y2="584.381" gradientUnits="userSpaceOnUse">
<stop stop-color="#F7DD43"/>
<stop offset="1" stop-color="#F7DD43" stop-opacity="0"/>
</linearGradient>
<linearGradient id="paint7_linear_175_1868" x1="69.5" y1="273" x2="69.5" y2="584.381" gradientUnits="userSpaceOnUse">
<stop stop-color="#F7DD43"/>
<stop offset="1" stop-color="#F7DD43" stop-opacity="0"/>
</linearGradient>
<linearGradient id="paint8_linear_175_1868" x1="69.5" y1="273" x2="69.5" y2="584.381" gradientUnits="userSpaceOnUse">
<stop stop-color="#F7DD43"/>
<stop offset="1" stop-color="#F7DD43" stop-opacity="0"/>
</linearGradient>
<linearGradient id="paint9_linear_175_1868" x1="69.5" y1="273" x2="69.5" y2="584.381" gradientUnits="userSpaceOnUse">
<stop stop-color="#F7DD43"/>
<stop offset="1" stop-color="#F7DD43" stop-opacity="0"/>
</linearGradient>
<linearGradient id="paint10_linear_175_1868" x1="69.5" y1="273" x2="69.5" y2="584.381" gradientUnits="userSpaceOnUse">
<stop stop-color="#F7DD43"/>
<stop offset="1" stop-color="#F7DD43" stop-opacity="0"/>
</linearGradient>
<linearGradient id="paint11_linear_175_1868" x1="69.5" y1="273" x2="69.5" y2="584.381" gradientUnits="userSpaceOnUse">
<stop stop-color="#F7DD43"/>
<stop offset="1" stop-color="#F7DD43" stop-opacity="0"/>
</linearGradient>
<linearGradient id="paint12_linear_175_1868" x1="69.5" y1="273" x2="69.5" y2="584.381" gradientUnits="userSpaceOnUse">
<stop stop-color="#F7DD43"/>
<stop offset="1" stop-color="#F7DD43" stop-opacity="0"/>
</linearGradient>
<linearGradient id="paint13_linear_175_1868" x1="69.5" y1="273" x2="69.5" y2="584.381" gradientUnits="userSpaceOnUse">
<stop stop-color="#F7DD43"/>
<stop offset="1" stop-color="#F7DD43" stop-opacity="0"/>
</linearGradient>
<linearGradient id="paint14_linear_175_1868" x1="69.5" y1="273" x2="69.5" y2="584.381" gradientUnits="userSpaceOnUse">
<stop stop-color="#F7DD43"/>
<stop offset="1" stop-color="#F7DD43" stop-opacity="0"/>
</linearGradient>
<linearGradient id="paint15_linear_175_1868" x1="69.5" y1="273" x2="69.5" y2="584.381" gradientUnits="userSpaceOnUse">
<stop stop-color="#F7DD43"/>
<stop offset="1" stop-color="#F7DD43" stop-opacity="0"/>
</linearGradient>
<linearGradient id="paint16_linear_175_1868" x1="69.5" y1="273" x2="69.5" y2="584.381" gradientUnits="userSpaceOnUse">
<stop stop-color="#F7DD43"/>
<stop offset="1" stop-color="#F7DD43" stop-opacity="0"/>
</linearGradient>
<linearGradient id="paint17_linear_175_1868" x1="69.5" y1="273" x2="69.5" y2="584.381" gradientUnits="userSpaceOnUse">
<stop stop-color="#F7DD43"/>
<stop offset="1" stop-color="#F7DD43" stop-opacity="0"/>
</linearGradient>
<linearGradient id="paint18_linear_175_1868" x1="69.5" y1="273" x2="69.5" y2="584.381" gradientUnits="userSpaceOnUse">
<stop stop-color="#F7DD43"/>
<stop offset="1" stop-color="#F7DD43" stop-opacity="0"/>
</linearGradient>
<linearGradient id="paint19_linear_175_1868" x1="69.5" y1="273" x2="69.5" y2="584.381" gradientUnits="userSpaceOnUse">
<stop stop-color="#F7DD43"/>
<stop offset="1" stop-color="#F7DD43" stop-opacity="0"/>
</linearGradient>
<linearGradient id="paint20_linear_175_1868" x1="69.5" y1="273" x2="69.5" y2="584.381" gradientUnits="userSpaceOnUse">
<stop stop-color="#F7DD43"/>
<stop offset="1" stop-color="#F7DD43" stop-opacity="0"/>
</linearGradient>
<linearGradient id="paint21_linear_175_1868" x1="69.5" y1="273" x2="69.5" y2="584.381" gradientUnits="userSpaceOnUse">
<stop stop-color="#F7DD43"/>
<stop offset="1" stop-color="#F7DD43" stop-opacity="0"/>
</linearGradient>
<linearGradient id="paint22_linear_175_1868" x1="69.5" y1="273" x2="69.5" y2="584.381" gradientUnits="userSpaceOnUse">
<stop stop-color="#F7DD43"/>
<stop offset="1" stop-color="#F7DD43" stop-opacity="0"/>
</linearGradient>
<linearGradient id="paint23_linear_175_1868" x1="69.5" y1="273" x2="69.5" y2="584.381" gradientUnits="userSpaceOnUse">
<stop stop-color="#F7DD43"/>
<stop offset="1" stop-color="#F7DD43" stop-opacity="0"/>
</linearGradient>
<linearGradient id="paint24_linear_175_1868" x1="69.5" y1="273" x2="69.5" y2="584.381" gradientUnits="userSpaceOnUse">
<stop stop-color="#F7DD43"/>
<stop offset="1" stop-color="#F7DD43" stop-opacity="0"/>
</linearGradient>
<linearGradient id="paint25_linear_175_1868" x1="69.5" y1="273" x2="69.5" y2="584.381" gradientUnits="userSpaceOnUse">
<stop stop-color="#F7DD43"/>
<stop offset="1" stop-color="#F7DD43" stop-opacity="0"/>
</linearGradient>
<linearGradient id="paint26_linear_175_1868" x1="69.5" y1="273" x2="69.5" y2="584.381" gradientUnits="userSpaceOnUse">
<stop stop-color="#F7DD43"/>
<stop offset="1" stop-color="#F7DD43" stop-opacity="0"/>
</linearGradient>
<linearGradient id="paint27_linear_175_1868" x1="69.5" y1="273" x2="69.5" y2="584.381" gradientUnits="userSpaceOnUse">
<stop stop-color="#F7DD43"/>
<stop offset="1" stop-color="#F7DD43" stop-opacity="0"/>
</linearGradient>
<linearGradient id="paint28_linear_175_1868" x1="69.5" y1="273" x2="69.5" y2="584.381" gradientUnits="userSpaceOnUse">
<stop stop-color="#F7DD43"/>
<stop offset="1" stop-color="#F7DD43" stop-opacity="0"/>
</linearGradient>
<linearGradient id="paint29_linear_175_1868" x1="69.5" y1="273" x2="69.5" y2="584.381" gradientUnits="userSpaceOnUse">
<stop stop-color="#F7DD43"/>
<stop offset="1" stop-color="#F7DD43" stop-opacity="0"/>
</linearGradient>
<linearGradient id="paint30_linear_175_1868" x1="69.5" y1="273" x2="69.5" y2="584.381" gradientUnits="userSpaceOnUse">
<stop stop-color="#F7DD43"/>
<stop offset="1" stop-color="#F7DD43" stop-opacity="0"/>
</linearGradient>
<linearGradient id="paint31_linear_175_1868" x1="69.5" y1="273" x2="69.5" y2="584.381" gradientUnits="userSpaceOnUse">
<stop stop-color="#F7DD43"/>
<stop offset="1" stop-color="#F7DD43" stop-opacity="0"/>
</linearGradient>
<linearGradient id="paint32_linear_175_1868" x1="69.5" y1="273" x2="69.5" y2="584.381" gradientUnits="userSpaceOnUse">
<stop stop-color="#F7DD43"/>
<stop offset="1" stop-color="#F7DD43" stop-opacity="0"/>
</linearGradient>
<linearGradient id="paint33_linear_175_1868" x1="69.5" y1="273" x2="69.5" y2="584.381" gradientUnits="userSpaceOnUse">
<stop stop-color="#F7DD43"/>
<stop offset="1" stop-color="#F7DD43" stop-opacity="0"/>
</linearGradient>
<linearGradient id="paint34_linear_175_1868" x1="69.5" y1="273" x2="69.5" y2="584.381" gradientUnits="userSpaceOnUse">
<stop stop-color="#F7DD43"/>
<stop offset="1" stop-color="#F7DD43" stop-opacity="0"/>
</linearGradient>
<linearGradient id="paint35_linear_175_1868" x1="69.5" y1="273" x2="69.5" y2="584.381" gradientUnits="userSpaceOnUse">
<stop stop-color="#F7DD43"/>
<stop offset="1" stop-color="#F7DD43" stop-opacity="0"/>
</linearGradient>
<linearGradient id="paint36_linear_175_1868" x1="69.5" y1="273" x2="69.5" y2="584.381" gradientUnits="userSpaceOnUse">
<stop stop-color="#F7DD43"/>
<stop offset="1" stop-color="#F7DD43" stop-opacity="0"/>
</linearGradient>
<linearGradient id="paint37_linear_175_1868" x1="69.5" y1="273" x2="69.5" y2="584.381" gradientUnits="userSpaceOnUse">
<stop stop-color="#F7DD43"/>
<stop offset="1" stop-color="#F7DD43" stop-opacity="0"/>
</linearGradient>
<linearGradient id="paint38_linear_175_1868" x1="69.5" y1="273" x2="69.5" y2="584.381" gradientUnits="userSpaceOnUse">
<stop stop-color="#F7DD43"/>
<stop offset="1" stop-color="#F7DD43" stop-opacity="0"/>
</linearGradient>
<linearGradient id="paint39_linear_175_1868" x1="69.5" y1="273" x2="69.5" y2="584.381" gradientUnits="userSpaceOnUse">
<stop stop-color="#F7DD43"/>
<stop offset="1" stop-color="#F7DD43" stop-opacity="0"/>
</linearGradient>
<linearGradient id="paint40_linear_175_1868" x1="69.5" y1="273" x2="69.5" y2="584.381" gradientUnits="userSpaceOnUse">
<stop stop-color="#F7DD43"/>
<stop offset="1" stop-color="#F7DD43" stop-opacity="0"/>
</linearGradient>
<linearGradient id="paint41_linear_175_1868" x1="69.5" y1="273" x2="69.5" y2="584.381" gradientUnits="userSpaceOnUse">
<stop stop-color="#F7DD43"/>
<stop offset="1" stop-color="#F7DD43" stop-opacity="0"/>
</linearGradient>
<linearGradient id="paint42_linear_175_1868" x1="69.5" y1="273" x2="69.5" y2="584.381" gradientUnits="userSpaceOnUse">
<stop stop-color="#F7DD43"/>
<stop offset="1" stop-color="#F7DD43" stop-opacity="0"/>
</linearGradient>
<linearGradient id="paint43_linear_175_1868" x1="69.5" y1="273" x2="69.5" y2="584.381" gradientUnits="userSpaceOnUse">
<stop stop-color="#F7DD43"/>
<stop offset="1" stop-color="#F7DD43" stop-opacity="0"/>
</linearGradient>
<linearGradient id="paint44_linear_175_1868" x1="69.5" y1="273" x2="69.5" y2="584.381" gradientUnits="userSpaceOnUse">
<stop stop-color="#F7DD43"/>
<stop offset="1" stop-color="#F7DD43" stop-opacity="0"/>
</linearGradient>
<linearGradient id="paint45_linear_175_1868" x1="69.5" y1="273" x2="69.5" y2="584.381" gradientUnits="userSpaceOnUse">
<stop stop-color="#F7DD43"/>
<stop offset="1" stop-color="#F7DD43" stop-opacity="0"/>
</linearGradient>
<linearGradient id="paint46_linear_175_1868" x1="69.5" y1="273" x2="69.5" y2="584.381" gradientUnits="userSpaceOnUse">
<stop stop-color="#F7DD43"/>
<stop offset="1" stop-color="#F7DD43" stop-opacity="0"/>
</linearGradient>
<linearGradient id="paint47_linear_175_1868" x1="955.5" y1="-27" x2="955.5" y2="271.818" gradientUnits="userSpaceOnUse">
<stop stop-color="#F7DD43"/>
<stop offset="1" stop-color="#F7DD43" stop-opacity="0"/>
</linearGradient>
<linearGradient id="paint48_linear_175_1868" x1="955.5" y1="-27" x2="955.5" y2="271.818" gradientUnits="userSpaceOnUse">
<stop stop-color="#F7DD43"/>
<stop offset="1" stop-color="#F7DD43" stop-opacity="0"/>
</linearGradient>
<linearGradient id="paint49_linear_175_1868" x1="955.5" y1="-27" x2="955.5" y2="271.818" gradientUnits="userSpaceOnUse">
<stop stop-color="#F7DD43"/>
<stop offset="1" stop-color="#F7DD43" stop-opacity="0"/>
</linearGradient>
<linearGradient id="paint50_linear_175_1868" x1="955.5" y1="-27" x2="955.5" y2="271.818" gradientUnits="userSpaceOnUse">
<stop stop-color="#F7DD43"/>
<stop offset="1" stop-color="#F7DD43" stop-opacity="0"/>
</linearGradient>
<linearGradient id="paint51_linear_175_1868" x1="955.5" y1="-27" x2="955.5" y2="271.818" gradientUnits="userSpaceOnUse">
<stop stop-color="#F7DD43"/>
<stop offset="1" stop-color="#F7DD43" stop-opacity="0"/>
</linearGradient>
<linearGradient id="paint52_linear_175_1868" x1="955.5" y1="-27" x2="955.5" y2="271.818" gradientUnits="userSpaceOnUse">
<stop stop-color="#F7DD43"/>
<stop offset="1" stop-color="#F7DD43" stop-opacity="0"/>
</linearGradient>
<linearGradient id="paint53_linear_175_1868" x1="955.5" y1="-27" x2="955.5" y2="271.818" gradientUnits="userSpaceOnUse">
<stop stop-color="#F7DD43"/>
<stop offset="1" stop-color="#F7DD43" stop-opacity="0"/>
</linearGradient>
<linearGradient id="paint54_linear_175_1868" x1="955.5" y1="-27" x2="955.5" y2="271.818" gradientUnits="userSpaceOnUse">
<stop stop-color="#F7DD43"/>
<stop offset="1" stop-color="#F7DD43" stop-opacity="0"/>
</linearGradient>
<linearGradient id="paint55_linear_175_1868" x1="955.5" y1="-27" x2="955.5" y2="271.818" gradientUnits="userSpaceOnUse">
<stop stop-color="#F7DD43"/>
<stop offset="1" stop-color="#F7DD43" stop-opacity="0"/>
</linearGradient>
<linearGradient id="paint56_linear_175_1868" x1="955.5" y1="-27" x2="955.5" y2="271.818" gradientUnits="userSpaceOnUse">
<stop stop-color="#F7DD43"/>
<stop offset="1" stop-color="#F7DD43" stop-opacity="0"/>
</linearGradient>
<linearGradient id="paint57_linear_175_1868" x1="955.5" y1="-27" x2="955.5" y2="271.818" gradientUnits="userSpaceOnUse">
<stop stop-color="#F7DD43"/>
<stop offset="1" stop-color="#F7DD43" stop-opacity="0"/>
</linearGradient>
<linearGradient id="paint58_linear_175_1868" x1="955.5" y1="-27" x2="955.5" y2="271.818" gradientUnits="userSpaceOnUse">
<stop stop-color="#F7DD43"/>
<stop offset="1" stop-color="#F7DD43" stop-opacity="0"/>
</linearGradient>
<linearGradient id="paint59_linear_175_1868" x1="955.5" y1="-27" x2="955.5" y2="271.818" gradientUnits="userSpaceOnUse">
<stop stop-color="#F7DD43"/>
<stop offset="1" stop-color="#F7DD43" stop-opacity="0"/>
</linearGradient>
<linearGradient id="paint60_linear_175_1868" x1="955.5" y1="-27" x2="955.5" y2="271.818" gradientUnits="userSpaceOnUse">
<stop stop-color="#F7DD43"/>
<stop offset="1" stop-color="#F7DD43" stop-opacity="0"/>
</linearGradient>
<linearGradient id="paint61_linear_175_1868" x1="955.5" y1="-27" x2="955.5" y2="271.818" gradientUnits="userSpaceOnUse">
<stop stop-color="#F7DD43"/>
<stop offset="1" stop-color="#F7DD43" stop-opacity="0"/>
</linearGradient>
<linearGradient id="paint62_linear_175_1868" x1="955.5" y1="-27" x2="955.5" y2="271.818" gradientUnits="userSpaceOnUse">
<stop stop-color="#F7DD43"/>
<stop offset="1" stop-color="#F7DD43" stop-opacity="0"/>
</linearGradient>
<linearGradient id="paint63_linear_175_1868" x1="955.5" y1="-27" x2="955.5" y2="271.818" gradientUnits="userSpaceOnUse">
<stop stop-color="#F7DD43"/>
<stop offset="1" stop-color="#F7DD43" stop-opacity="0"/>
</linearGradient>
<linearGradient id="paint64_linear_175_1868" x1="955.5" y1="-27" x2="955.5" y2="271.818" gradientUnits="userSpaceOnUse">
<stop stop-color="#F7DD43"/>
<stop offset="1" stop-color="#F7DD43" stop-opacity="0"/>
</linearGradient>
<linearGradient id="paint65_linear_175_1868" x1="955.5" y1="-27" x2="955.5" y2="271.818" gradientUnits="userSpaceOnUse">
<stop stop-color="#F7DD43"/>
<stop offset="1" stop-color="#F7DD43" stop-opacity="0"/>
</linearGradient>
<linearGradient id="paint66_linear_175_1868" x1="955.5" y1="-27" x2="955.5" y2="271.818" gradientUnits="userSpaceOnUse">
<stop stop-color="#F7DD43"/>
<stop offset="1" stop-color="#F7DD43" stop-opacity="0"/>
</linearGradient>
<linearGradient id="paint67_linear_175_1868" x1="955.5" y1="-27" x2="955.5" y2="271.818" gradientUnits="userSpaceOnUse">
<stop stop-color="#F7DD43"/>
<stop offset="1" stop-color="#F7DD43" stop-opacity="0"/>
</linearGradient>
<linearGradient id="paint68_linear_175_1868" x1="955.5" y1="-27" x2="955.5" y2="271.818" gradientUnits="userSpaceOnUse">
<stop stop-color="#F7DD43"/>
<stop offset="1" stop-color="#F7DD43" stop-opacity="0"/>
</linearGradient>
<linearGradient id="paint69_linear_175_1868" x1="955.5" y1="-27" x2="955.5" y2="271.818" gradientUnits="userSpaceOnUse">
<stop stop-color="#F7DD43"/>
<stop offset="1" stop-color="#F7DD43" stop-opacity="0"/>
</linearGradient>
<linearGradient id="paint70_linear_175_1868" x1="955.5" y1="-27" x2="955.5" y2="271.818" gradientUnits="userSpaceOnUse">
<stop stop-color="#F7DD43"/>
<stop offset="1" stop-color="#F7DD43" stop-opacity="0"/>
</linearGradient>
<linearGradient id="paint71_linear_175_1868" x1="955.5" y1="-27" x2="955.5" y2="271.818" gradientUnits="userSpaceOnUse">
<stop stop-color="#F7DD43"/>
<stop offset="1" stop-color="#F7DD43" stop-opacity="0"/>
</linearGradient>
<linearGradient id="paint72_linear_175_1868" x1="955.5" y1="-27" x2="955.5" y2="271.818" gradientUnits="userSpaceOnUse">
<stop stop-color="#F7DD43"/>
<stop offset="1" stop-color="#F7DD43" stop-opacity="0"/>
</linearGradient>
<linearGradient id="paint73_linear_175_1868" x1="955.5" y1="-27" x2="955.5" y2="271.818" gradientUnits="userSpaceOnUse">
<stop stop-color="#F7DD43"/>
<stop offset="1" stop-color="#F7DD43" stop-opacity="0"/>
</linearGradient>
<linearGradient id="paint74_linear_175_1868" x1="955.5" y1="-27" x2="955.5" y2="271.818" gradientUnits="userSpaceOnUse">
<stop stop-color="#F7DD43"/>
<stop offset="1" stop-color="#F7DD43" stop-opacity="0"/>
</linearGradient>
<linearGradient id="paint75_linear_175_1868" x1="955.5" y1="-27" x2="955.5" y2="271.818" gradientUnits="userSpaceOnUse">
<stop stop-color="#F7DD43"/>
<stop offset="1" stop-color="#F7DD43" stop-opacity="0"/>
</linearGradient>
<linearGradient id="paint76_linear_175_1868" x1="955.5" y1="-27" x2="955.5" y2="271.818" gradientUnits="userSpaceOnUse">
<stop stop-color="#F7DD43"/>
<stop offset="1" stop-color="#F7DD43" stop-opacity="0"/>
</linearGradient>
<linearGradient id="paint77_linear_175_1868" x1="955.5" y1="-27" x2="955.5" y2="271.818" gradientUnits="userSpaceOnUse">
<stop stop-color="#F7DD43"/>
<stop offset="1" stop-color="#F7DD43" stop-opacity="0"/>
</linearGradient>
<linearGradient id="paint78_linear_175_1868" x1="955.5" y1="-27" x2="955.5" y2="271.818" gradientUnits="userSpaceOnUse">
<stop stop-color="#F7DD43"/>
<stop offset="1" stop-color="#F7DD43" stop-opacity="0"/>
</linearGradient>
<linearGradient id="paint79_linear_175_1868" x1="955.5" y1="-27" x2="955.5" y2="271.818" gradientUnits="userSpaceOnUse">
<stop stop-color="#F7DD43"/>
<stop offset="1" stop-color="#F7DD43" stop-opacity="0"/>
</linearGradient>
<linearGradient id="paint80_linear_175_1868" x1="955.5" y1="-27" x2="955.5" y2="271.818" gradientUnits="userSpaceOnUse">
<stop stop-color="#F7DD43"/>
<stop offset="1" stop-color="#F7DD43" stop-opacity="0"/>
</linearGradient>
<linearGradient id="paint81_linear_175_1868" x1="955.5" y1="-27" x2="955.5" y2="271.818" gradientUnits="userSpaceOnUse">
<stop stop-color="#F7DD43"/>
<stop offset="1" stop-color="#F7DD43" stop-opacity="0"/>
</linearGradient>
<linearGradient id="paint82_linear_175_1868" x1="955.5" y1="-27" x2="955.5" y2="271.818" gradientUnits="userSpaceOnUse">
<stop stop-color="#F7DD43"/>
<stop offset="1" stop-color="#F7DD43" stop-opacity="0"/>
</linearGradient>
<linearGradient id="paint83_linear_175_1868" x1="955.5" y1="-27" x2="955.5" y2="271.818" gradientUnits="userSpaceOnUse">
<stop stop-color="#F7DD43"/>
<stop offset="1" stop-color="#F7DD43" stop-opacity="0"/>
</linearGradient>
<linearGradient id="paint84_linear_175_1868" x1="955.5" y1="-27" x2="955.5" y2="271.818" gradientUnits="userSpaceOnUse">
<stop stop-color="#F7DD43"/>
<stop offset="1" stop-color="#F7DD43" stop-opacity="0"/>
</linearGradient>
<linearGradient id="paint85_linear_175_1868" x1="955.5" y1="-27" x2="955.5" y2="271.818" gradientUnits="userSpaceOnUse">
<stop stop-color="#F7DD43"/>
<stop offset="1" stop-color="#F7DD43" stop-opacity="0"/>
</linearGradient>
<linearGradient id="paint86_linear_175_1868" x1="955.5" y1="-27" x2="955.5" y2="271.818" gradientUnits="userSpaceOnUse">
<stop stop-color="#F7DD43"/>
<stop offset="1" stop-color="#F7DD43" stop-opacity="0"/>
</linearGradient>
<linearGradient id="paint87_linear_175_1868" x1="955.5" y1="-27" x2="955.5" y2="271.818" gradientUnits="userSpaceOnUse">
<stop stop-color="#F7DD43"/>
<stop offset="1" stop-color="#F7DD43" stop-opacity="0"/>
</linearGradient>
<linearGradient id="paint88_linear_175_1868" x1="955.5" y1="-27" x2="955.5" y2="271.818" gradientUnits="userSpaceOnUse">
<stop stop-color="#F7DD43"/>
<stop offset="1" stop-color="#F7DD43" stop-opacity="0"/>
</linearGradient>
<linearGradient id="paint89_linear_175_1868" x1="955.5" y1="-27" x2="955.5" y2="271.818" gradientUnits="userSpaceOnUse">
<stop stop-color="#F7DD43"/>
<stop offset="1" stop-color="#F7DD43" stop-opacity="0"/>
</linearGradient>
<linearGradient id="paint90_linear_175_1868" x1="955.5" y1="-27" x2="955.5" y2="271.818" gradientUnits="userSpaceOnUse">
<stop stop-color="#F7DD43"/>
<stop offset="1" stop-color="#F7DD43" stop-opacity="0"/>
</linearGradient>
<linearGradient id="paint91_linear_175_1868" x1="955.5" y1="-27" x2="955.5" y2="271.818" gradientUnits="userSpaceOnUse">
<stop stop-color="#F7DD43"/>
<stop offset="1" stop-color="#F7DD43" stop-opacity="0"/>
</linearGradient>
<linearGradient id="paint92_linear_175_1868" x1="955.5" y1="-27" x2="955.5" y2="271.818" gradientUnits="userSpaceOnUse">
<stop stop-color="#F7DD43"/>
<stop offset="1" stop-color="#F7DD43" stop-opacity="0"/>
</linearGradient>
<linearGradient id="paint93_linear_175_1868" x1="955.5" y1="-27" x2="955.5" y2="271.818" gradientUnits="userSpaceOnUse">
<stop stop-color="#F7DD43"/>
<stop offset="1" stop-color="#F7DD43" stop-opacity="0"/>
</linearGradient>
</defs>
</svg>
